<?xml version="1.0" standalone="no"?>
<!DOCTYPE svg PUBLIC "-//W3C//DTD SVG 20010904//EN"
 "http://www.w3.org/TR/2001/REC-SVG-20010904/DTD/svg10.dtd">
<svg version="1.0" xmlns="http://www.w3.org/2000/svg"
 width="134.000000pt" height="45.000000pt" viewBox="0 0 134.000000 45.000000"
 preserveAspectRatio="xMidYMid meet">

<g transform="translate(0.000000,45.000000) scale(0.100000,-0.100000)"
fill="#000000" stroke="none">
<path d="M194 316 c-48 -48 -48 -104 0 -152 29 -29 41 -34 79 -34 58 0 95 30
104 83 l6 37 -57 0 c-43 0 -56 -3 -56 -15 0 -10 10 -15 29 -15 36 0 45 -11 28
-33 -21 -28 -69 -31 -100 -7 -68 53 -4 165 73 126 20 -10 31 -11 39 -3 16 16
14 23 -14 35 -49 23 -94 15 -131 -22z"/>
<path d="M621 288 c-28 -23 -51 -46 -51 -50 0 -5 5 -6 10 -3 6 3 10 -3 10 -15
0 -26 18 -61 39 -77 28 -22 89 -16 116 12 25 24 35 85 15 85 -5 0 -10 -11 -10
-24 0 -33 -37 -76 -66 -76 -33 0 -64 34 -64 70 0 17 -5 30 -12 30 -15 0 26 43
57 60 22 12 28 9 75 -30 28 -23 54 -40 57 -36 4 4 -2 13 -14 21 -14 10 -19 22
-16 40 4 20 1 25 -16 25 -11 0 -21 -5 -21 -12 0 -6 -7 -4 -18 5 -26 24 -33 22
-91 -25z"/>
</g>
</svg>
